<?xml version="1.0" standalone="no"?>
<!DOCTYPE svg PUBLIC "-//W3C//DTD SVG 20010904//EN"
 "http://www.w3.org/TR/2001/REC-SVG-20010904/DTD/svg10.dtd">
<svg version="1.0" xmlns="http://www.w3.org/2000/svg"
 width="109.000000pt" height="109.000000pt" viewBox="0 0 109.000000 109.000000"
 preserveAspectRatio="xMidYMid meet">
<metadata>
Created by potrace 1.11, written by Peter Selinger 2001-2013
</metadata>
<g transform="translate(0.000000,109.000000) scale(0.100000,-0.100000)"
fill="#000000" stroke="none">
<path d="M97 989 c-27 -27 -47 -54 -45 -59 2 -6 87 -94 190 -197 l187 -188
-106 -107 c-58 -59 -110 -105 -116 -101 -5 3 -7 2 -4 -4 4 -6 -29 -46 -72 -91
l-79 -80 59 -60 59 -59 190 190 190 190 30 -28 c23 -22 27 -31 18 -38 -10 -6
-9 -7 3 -4 11 4 69 -47 179 -155 l162 -160 54 53 c30 29 53 57 52 61 -2 4 -58
63 -125 131 -68 68 -120 128 -115 132 4 5 2 5 -4 2 -11 -6 -142 118 -133 127
2 3 86 88 187 189 100 101 182 187 182 191 0 3 -25 31 -56 62 l-56 57 -78 -78
c-51 -51 -82 -75 -91 -70 -8 5 -10 4 -5 -4 5 -8 -31 -52 -100 -121 l-108 -109
-188 187 c-104 103 -194 188 -201 189 -7 1 -34 -20 -60 -48z"/>
<path d="M510 806 c0 -2 7 -7 16 -10 8 -3 12 -2 9 4 -6 10 -25 14 -25 6z"/>
<path d="M546 768 c3 -5 10 -6 15 -3 13 9 11 12 -6 12 -8 0 -12 -4 -9 -9z"/>
<path d="M270 556 c0 -2 8 -10 18 -17 15 -13 16 -12 3 4 -13 16 -21 21 -21 13z"/>
<path d="M787 553 c-3 -5 6 -9 20 -10 19 -1 22 1 12 8 -17 11 -26 11 -32 2z"/>
<path d="M795 521 c-3 -5 -2 -12 3 -15 5 -3 9 1 9 9 0 17 -3 19 -12 6z"/>
<path d="M275 510 c-3 -6 1 -7 9 -4 18 7 21 14 7 14 -6 0 -13 -4 -16 -10z"/>
<path d="M536 309 c2 -4 13 -7 24 -6 23 2 17 10 -10 12 -10 1 -17 -2 -14 -6z"/>
<path d="M550 280 c-12 -7 -10 -9 7 -7 12 0 19 5 17 9 -6 10 -6 10 -24 -2z"/>
</g>
</svg>
